<svg xmlns="http://www.w3.org/2000/svg" xmlns:xlink="http://www.w3.org/1999/xlink" width="500" zoomAndPan="magnify" viewBox="0 0 375 374.999991" height="500" preserveAspectRatio="xMidYMid meet" version="1.0"><defs><clipPath id="f9e39fabec"><path d="M 3.820312 6.164062 L 366.492188 6.164062 L 366.492188 368.835938 L 3.820312 368.835938 Z M 3.820312 6.164062 " clip-rule="nonzero"/></clipPath><clipPath id="9f10554a8c"><path d="M 185.15625 6.164062 C 85.007812 6.164062 3.820312 87.351562 3.820312 187.5 C 3.820312 287.648438 85.007812 368.835938 185.15625 368.835938 C 285.304688 368.835938 366.492188 287.648438 366.492188 187.5 C 366.492188 87.351562 285.304688 6.164062 185.15625 6.164062 Z M 185.15625 6.164062 " clip-rule="nonzero"/></clipPath><clipPath id="7d0be42a17"><path d="M 34 94 L 334 94 L 334 274.726562 L 34 274.726562 Z M 34 94 " clip-rule="nonzero"/></clipPath></defs><g clip-path="url(#f9e39fabec)"><g clip-path="url(#9f10554a8c)"><path fill="#0d7ec0" d="M 3.820312 6.164062 L 366.492188 6.164062 L 366.492188 368.835938 L 3.820312 368.835938 Z M 3.820312 6.164062 " fill-opacity="1" fill-rule="nonzero"/></g></g><g clip-path="url(#7d0be42a17)"><path fill="#ffffff" d="M 333.34375 194.640625 C 331.273438 182.246094 324.402344 176.226562 320.308594 173.671875 C 323.898438 170.554688 326.355469 167.601562 327.65625 164.835938 C 334.828125 149.554688 328.523438 135.253906 309.902344 124.5625 C 293.28125 115.023438 248.503906 104.867188 246.609375 104.445312 C 246.507812 104.421875 246.398438 104.410156 246.300781 104.402344 C 244.929688 102.6875 243.40625 100.898438 241.695312 99.03125 C 241.609375 98.9375 241.515625 98.851562 241.414062 98.773438 C 240.964844 98.417969 230.234375 90.226562 218.605469 97.40625 C 217.601562 98.03125 216.582031 98.671875 215.539062 99.332031 C 213.515625 100.617188 211.390625 101.960938 209.011719 103.347656 L 172.980469 96.199219 C 171.363281 95.769531 153.871094 91.566406 130.753906 103.734375 L 66.28125 135.972656 C 66.246094 135.988281 66.210938 136.007812 66.171875 136.023438 L 60.476562 138.875 C 60.449219 138.890625 60.429688 138.902344 60.398438 138.917969 C 60.164062 139.046875 54.53125 142.15625 49.238281 146.859375 C 41.691406 153.570312 38.6875 160.011719 40.328125 165.992188 C 40.484375 166.601562 42.300781 173.101562 48.605469 177.347656 C 44.097656 180.097656 37.214844 185.449219 35.421875 193.304688 C 33.957031 199.710938 34.769531 206.621094 37.640625 212.25 C 39.652344 216.1875 43.488281 221.121094 50.710938 224.230469 C 46.71875 226.773438 41.707031 231.21875 40.878906 237.847656 C 39.707031 247.21875 48.628906 254.097656 65.992188 257.214844 C 77.765625 259.328125 158.070312 274.480469 158.882812 274.632812 C 158.960938 274.644531 159.046875 274.660156 159.128906 274.667969 C 159.585938 274.703125 164.414062 275.078125 171.316406 275.070312 C 181.039062 275.070312 194.871094 274.335938 206.425781 270.910156 C 225.9375 265.121094 303.703125 228.042969 306.976562 226.476562 C 308.171875 225.910156 336.351562 212.679688 333.34375 194.640625 Z M 218.011719 103.230469 C 219.042969 102.578125 220.042969 101.945312 221.035156 101.328125 C 229.378906 96.171875 237.265625 101.457031 238.429688 102.304688 C 248.582031 113.445312 251.65625 121.15625 254.902344 129.324219 C 255.695312 131.304688 256.511719 133.359375 257.429688 135.441406 C 258.078125 136.90625 258.679688 138.890625 257.882812 140.023438 C 256.84375 141.503906 253.523438 141.777344 252.082031 141.675781 C 252.046875 141.675781 252.015625 141.667969 251.980469 141.667969 L 83.933594 136.273438 C 102.269531 133.992188 139.65625 129.058594 164.382812 123.9375 C 188.308594 118.980469 201.21875 113.15625 210.46875 107.84375 C 210.554688 107.800781 210.636719 107.757812 210.714844 107.699219 C 213.386719 106.15625 215.761719 104.652344 218.011719 103.230469 Z M 132.835938 107.847656 C 132.847656 107.84375 132.863281 107.835938 132.878906 107.828125 C 154.910156 96.230469 171.660156 100.632812 171.824219 100.675781 C 171.882812 100.6875 171.941406 100.703125 171.996094 100.71875 L 202.640625 106.792969 C 194.074219 111.074219 182.273438 115.511719 163.445312 119.410156 C 139.894531 124.289062 104.71875 129 85.75 131.390625 Z M 62.582031 142.976562 L 67.761719 140.382812 L 251.785156 146.292969 C 251.953125 146.308594 252.269531 146.320312 252.699219 146.320312 C 254.753906 146.320312 259.371094 145.941406 261.652344 142.703125 C 263.300781 140.367188 263.304688 137.300781 261.660156 133.582031 C 260.777344 131.578125 259.972656 129.558594 259.199219 127.613281 C 257.035156 122.191406 254.832031 116.648438 250.472656 110.105469 C 262.722656 113.050781 294.71875 121.179688 307.601562 128.570312 C 328.414062 140.519531 327.71875 153.8125 323.46875 162.867188 C 318.023438 174.46875 285.449219 189.570312 273.339844 194.410156 C 272.765625 194.648438 215.785156 217.953125 195.976562 223.355469 C 193.210938 224.109375 190.46875 224.644531 187.796875 225.011719 C 192.695312 221.257812 197.730469 214.347656 196.445312 202.109375 C 195.566406 193.785156 191.058594 186.75 183.308594 181.46875 C 183.617188 181.476562 183.917969 181.476562 184.21875 181.476562 C 196 181.476562 201.835938 177.589844 202.183594 177.363281 C 203.230469 176.644531 203.488281 175.214844 202.777344 174.164062 C 202.066406 173.109375 200.628906 172.835938 199.574219 173.539062 C 199.546875 173.554688 196.894531 175.292969 191.554688 176.242188 C 186.761719 177.089844 178.804688 177.441406 167.804688 174.503906 C 163.867188 173.390625 160.945312 172.960938 160.3125 172.875 L 53.585938 149.1875 C 56.894531 146.421875 60.363281 144.195312 62.582031 142.976562 Z M 159.609375 270.050781 C 155.960938 269.359375 78.382812 254.722656 66.804688 252.648438 C 60.199219 251.464844 54.746094 249.644531 51.054688 247.40625 C 46.855469 244.855469 45.023438 241.910156 45.46875 238.398438 C 46.359375 231.269531 54.566406 227.167969 56.84375 226.160156 L 156.382812 247.40625 C 156.550781 247.441406 156.707031 247.457031 156.863281 247.457031 C 157.933594 247.457031 158.890625 246.707031 159.128906 245.625 C 159.394531 244.375 158.597656 243.148438 157.347656 242.882812 L 57.144531 221.5 C 41.898438 217.746094 37.527344 204.78125 39.917969 194.316406 C 41.785156 186.144531 51.300781 180.972656 53.84375 179.71875 L 156.382812 200.984375 C 156.542969 201.019531 156.699219 201.03125 156.859375 201.03125 C 157.929688 201.03125 158.890625 200.277344 159.121094 199.1875 C 159.378906 197.9375 158.574219 196.714844 157.324219 196.449219 L 54.230469 175.078125 C 46.789062 172.167969 44.878906 165.109375 44.800781 164.824219 C 44.792969 164.808594 44.792969 164.785156 44.785156 164.773438 C 43.722656 160.910156 46.078125 156.734375 49.511719 153.023438 L 159.414062 177.417969 C 159.488281 177.433594 159.558594 177.449219 159.628906 177.453125 C 159.671875 177.460938 162.195312 177.792969 165.800781 178.761719 C 166.023438 178.828125 166.246094 178.882812 166.46875 178.941406 C 169.058594 179.667969 172.140625 180.714844 175.234375 182.1875 C 185.339844 186.992188 190.933594 193.859375 191.855469 202.597656 C 193.914062 222.210938 177.144531 225.328125 174.863281 225.660156 C 165.132812 225.335938 158.238281 223.398438 158.128906 223.367188 C 158.085938 223.355469 158.042969 223.347656 158 223.332031 L 66.605469 202.546875 C 65.363281 202.269531 64.121094 203.042969 63.839844 204.292969 C 63.558594 205.535156 64.335938 206.777344 65.585938 207.058594 L 156.902344 227.828125 C 157.871094 228.101562 166.171875 230.363281 177.425781 230.363281 C 178.699219 230.363281 180.011719 230.335938 181.355469 230.269531 C 188.164062 232.574219 194.890625 240.347656 194.847656 252.785156 C 194.8125 262.976562 179.4375 269.351562 176.917969 270.328125 C 167.738281 270.601562 160.605469 270.121094 159.609375 270.050781 Z M 305.011719 222.277344 C 304.207031 222.65625 224.265625 260.769531 205.105469 266.457031 C 199.855469 268.015625 194.015625 268.988281 188.328125 269.574219 C 193.808594 265.898438 199.445312 260.289062 199.472656 252.792969 C 199.511719 243.03125 195.648438 234.476562 189.375 229.464844 C 191.933594 229.070312 194.554688 228.53125 197.203125 227.8125 C 217.285156 222.339844 272.75 199.652344 275.085938 198.699219 C 275.199219 198.65625 286.410156 194.152344 298.339844 187.863281 C 305.6875 183.984375 311.726562 180.285156 316.429688 176.78125 C 318.992188 178.042969 326.683594 182.8125 328.789062 195.402344 C 331.210938 209.972656 305.296875 222.148438 305.011719 222.277344 Z M 305.011719 222.277344 " fill-opacity="1" fill-rule="nonzero"/></g></svg>