<svg xmlns="http://www.w3.org/2000/svg" xmlns:xlink="http://www.w3.org/1999/xlink" width="500" zoomAndPan="magnify" viewBox="0 0 375 374.999991" height="500" preserveAspectRatio="xMidYMid meet" version="1.0"><defs><g/><clipPath id="26dec4d87e"><path d="M 5.554688 5.554688 L 369.304688 5.554688 L 369.304688 369.304688 L 5.554688 369.304688 Z M 5.554688 5.554688 " clip-rule="nonzero"/></clipPath></defs><g fill="#000000" fill-opacity="1"><g transform="translate(139.412105, 202.499987)"><g><path d="M 8.890625 0 L 3.71875 0 L 3.71875 -28.5625 L 11.09375 -28.5625 L 18.328125 -7.5625 L 18.734375 -7.5625 L 25.921875 -28.5625 L 33.125 -28.5625 L 33.125 0 L 27.78125 0 L 27.78125 -18.875 L 27.28125 -18.953125 L 20.6875 0 L 15.984375 0 L 9.375 -18.953125 L 8.890625 -18.875 Z M 8.890625 0 "/></g></g></g><g fill="#000000" fill-opacity="1"><g transform="translate(176.263978, 202.499987)"><g><path d="M 8.40625 0.40625 C 7.019531 0.40625 5.816406 0.15625 4.796875 -0.34375 C 3.785156 -0.851562 3.003906 -1.597656 2.453125 -2.578125 C 1.910156 -3.566406 1.640625 -4.753906 1.640625 -6.140625 C 1.640625 -7.410156 1.910156 -8.476562 2.453125 -9.34375 C 3.003906 -10.207031 3.851562 -10.914062 5 -11.46875 C 6.144531 -12.03125 7.644531 -12.457031 9.5 -12.75 C 10.78125 -12.957031 11.753906 -13.1875 12.421875 -13.4375 C 13.097656 -13.6875 13.550781 -13.96875 13.78125 -14.28125 C 14.019531 -14.59375 14.140625 -14.988281 14.140625 -15.46875 C 14.140625 -16.15625 13.898438 -16.679688 13.421875 -17.046875 C 12.941406 -17.410156 12.140625 -17.59375 11.015625 -17.59375 C 9.816406 -17.59375 8.675781 -17.328125 7.59375 -16.796875 C 6.519531 -16.265625 5.582031 -15.5625 4.78125 -14.6875 L 4.390625 -14.6875 L 2.125 -18.109375 C 3.21875 -19.316406 4.550781 -20.257812 6.125 -20.9375 C 7.707031 -21.613281 9.429688 -21.953125 11.296875 -21.953125 C 14.140625 -21.953125 16.195312 -21.347656 17.46875 -20.140625 C 18.75 -18.929688 19.390625 -17.210938 19.390625 -14.984375 L 19.390625 -5.625 C 19.390625 -4.664062 19.816406 -4.1875 20.671875 -4.1875 C 20.992188 -4.1875 21.3125 -4.242188 21.625 -4.359375 L 21.890625 -4.28125 L 22.28125 -0.515625 C 21.988281 -0.316406 21.570312 -0.15625 21.03125 -0.03125 C 20.5 0.09375 19.914062 0.15625 19.28125 0.15625 C 17.988281 0.15625 16.976562 -0.0859375 16.25 -0.578125 C 15.53125 -1.078125 15.015625 -1.851562 14.703125 -2.90625 L 14.296875 -2.953125 C 13.242188 -0.710938 11.28125 0.40625 8.40625 0.40625 Z M 10.125 -3.640625 C 11.375 -3.640625 12.367188 -4.054688 13.109375 -4.890625 C 13.859375 -5.734375 14.234375 -6.90625 14.234375 -8.40625 L 14.234375 -10.59375 L 13.875 -10.671875 C 13.539062 -10.410156 13.109375 -10.191406 12.578125 -10.015625 C 12.054688 -9.835938 11.300781 -9.664062 10.3125 -9.5 C 9.144531 -9.300781 8.300781 -8.960938 7.78125 -8.484375 C 7.269531 -8.015625 7.015625 -7.34375 7.015625 -6.46875 C 7.015625 -5.539062 7.285156 -4.835938 7.828125 -4.359375 C 8.378906 -3.878906 9.144531 -3.640625 10.125 -3.640625 Z M 10.125 -3.640625 "/></g></g></g><g fill="#000000" fill-opacity="1"><g transform="translate(198.976608, 202.499987)"><g><path d="M 14.859375 -5.140625 L 16.265625 -1.140625 C 15.679688 -0.648438 14.945312 -0.269531 14.0625 0 C 13.175781 0.269531 12.175781 0.40625 11.0625 0.40625 C 8.726562 0.40625 6.953125 -0.226562 5.734375 -1.5 C 4.523438 -2.769531 3.921875 -4.613281 3.921875 -7.03125 L 3.921875 -17.265625 L 0.640625 -17.265625 L 0.640625 -21.5625 L 3.921875 -21.5625 L 3.921875 -25.765625 L 9.34375 -26.640625 L 9.34375 -21.5625 L 15.453125 -21.5625 L 15.453125 -17.265625 L 9.34375 -17.265625 L 9.34375 -7.421875 C 9.34375 -6.359375 9.5625 -5.582031 10 -5.09375 C 10.445312 -4.601562 11.09375 -4.359375 11.9375 -4.359375 C 12.894531 -4.359375 13.734375 -4.617188 14.453125 -5.140625 Z M 14.859375 -5.140625 "/></g></g></g><g fill="#000000" fill-opacity="1"><g transform="translate(215.713258, 202.499987)"><g><path d="M 10.078125 0.40625 C 8.609375 0.40625 7.257812 0.234375 6.03125 -0.109375 C 4.8125 -0.453125 3.769531 -0.925781 2.90625 -1.53125 C 2.039062 -2.132812 1.398438 -2.828125 0.984375 -3.609375 L 3.984375 -6.859375 L 4.390625 -6.859375 C 5.109375 -5.890625 5.957031 -5.164062 6.9375 -4.6875 C 7.914062 -4.207031 8.976562 -3.96875 10.125 -3.96875 C 11.175781 -3.96875 11.96875 -4.15625 12.5 -4.53125 C 13.03125 -4.90625 13.296875 -5.445312 13.296875 -6.15625 C 13.296875 -6.695312 13.101562 -7.15625 12.71875 -7.53125 C 12.34375 -7.90625 11.722656 -8.195312 10.859375 -8.40625 L 8.015625 -9.078125 C 5.878906 -9.585938 4.316406 -10.363281 3.328125 -11.40625 C 2.347656 -12.457031 1.859375 -13.789062 1.859375 -15.40625 C 1.859375 -16.75 2.195312 -17.914062 2.875 -18.90625 C 3.5625 -19.894531 4.523438 -20.648438 5.765625 -21.171875 C 7.015625 -21.691406 8.46875 -21.953125 10.125 -21.953125 C 12.0625 -21.953125 13.664062 -21.671875 14.9375 -21.109375 C 16.21875 -20.554688 17.21875 -19.8125 17.9375 -18.875 L 15.046875 -15.75 L 14.65625 -15.75 C 14.050781 -16.425781 13.375 -16.921875 12.625 -17.234375 C 11.875 -17.546875 11.039062 -17.703125 10.125 -17.703125 C 7.988281 -17.703125 6.921875 -17.035156 6.921875 -15.703125 C 6.921875 -15.140625 7.117188 -14.679688 7.515625 -14.328125 C 7.910156 -13.984375 8.609375 -13.703125 9.609375 -13.484375 L 12.265625 -12.890625 C 14.453125 -12.421875 16.050781 -11.664062 17.0625 -10.625 C 18.070312 -9.59375 18.578125 -8.207031 18.578125 -6.46875 C 18.578125 -5.101562 18.238281 -3.898438 17.5625 -2.859375 C 16.882812 -1.816406 15.90625 -1.007812 14.625 -0.4375 C 13.351562 0.125 11.835938 0.40625 10.078125 0.40625 Z M 10.078125 0.40625 "/></g></g></g><g clip-path="url(#26dec4d87e)"><path fill="#e40978" d="M 369.433594 187.496094 C 369.433594 190.472656 369.363281 193.449219 369.214844 196.421875 C 369.070312 199.394531 368.851562 202.363281 368.558594 205.328125 C 368.265625 208.292969 367.902344 211.246094 367.464844 214.191406 C 367.027344 217.136719 366.519531 220.070312 365.9375 222.988281 C 365.359375 225.910156 364.707031 228.8125 363.980469 231.703125 C 363.257812 234.589844 362.464844 237.460938 361.601562 240.308594 C 360.734375 243.160156 359.800781 245.984375 358.800781 248.789062 C 357.796875 251.59375 356.722656 254.371094 355.585938 257.121094 C 354.445312 259.871094 353.238281 262.59375 351.964844 265.285156 C 350.691406 267.976562 349.355469 270.632812 347.953125 273.261719 C 346.546875 275.886719 345.082031 278.476562 343.550781 281.03125 C 342.019531 283.585938 340.425781 286.097656 338.773438 288.574219 C 337.117188 291.050781 335.402344 293.484375 333.628906 295.875 C 331.855469 298.269531 330.023438 300.613281 328.136719 302.917969 C 326.246094 305.21875 324.304688 307.472656 322.304688 309.679688 C 320.304688 311.882812 318.25 314.039062 316.144531 316.144531 C 314.039062 318.25 311.882812 320.304688 309.679688 322.304688 C 307.472656 324.304688 305.21875 326.246094 302.917969 328.136719 C 300.613281 330.023438 298.269531 331.855469 295.875 333.628906 C 293.484375 335.402344 291.050781 337.117188 288.574219 338.773438 C 286.097656 340.425781 283.585938 342.019531 281.03125 343.550781 C 278.476562 345.082031 275.886719 346.546875 273.261719 347.953125 C 270.632812 349.355469 267.976562 350.691406 265.285156 351.964844 C 262.59375 353.238281 259.871094 354.445312 257.121094 355.585938 C 254.371094 356.722656 251.59375 357.796875 248.789062 358.800781 C 245.984375 359.800781 243.160156 360.734375 240.308594 361.601562 C 237.460938 362.464844 234.589844 363.257812 231.703125 363.980469 C 228.8125 364.707031 225.910156 365.359375 222.988281 365.9375 C 220.070312 366.519531 217.136719 367.027344 214.191406 367.464844 C 211.246094 367.902344 208.292969 368.265625 205.328125 368.558594 C 202.363281 368.851562 199.394531 369.070312 196.421875 369.214844 C 193.449219 369.363281 190.472656 369.433594 187.496094 369.433594 C 184.515625 369.433594 181.542969 369.363281 178.566406 369.214844 C 175.59375 369.070312 172.625 368.851562 169.660156 368.558594 C 166.699219 368.265625 163.746094 367.902344 160.800781 367.464844 C 157.855469 367.027344 154.921875 366.519531 152 365.9375 C 149.078125 365.359375 146.175781 364.707031 143.289062 363.980469 C 140.398438 363.257812 137.53125 362.464844 134.679688 361.601562 C 131.832031 360.734375 129.003906 359.800781 126.203125 358.800781 C 123.398438 357.796875 120.621094 356.722656 117.871094 355.585938 C 115.117188 354.445312 112.398438 353.238281 109.707031 351.964844 C 107.015625 350.691406 104.355469 349.355469 101.730469 347.953125 C 99.101562 346.546875 96.511719 345.082031 93.960938 343.550781 C 91.40625 342.019531 88.890625 340.425781 86.414062 338.773438 C 83.9375 337.117188 81.503906 335.402344 79.113281 333.628906 C 76.722656 331.855469 74.375 330.023438 72.074219 328.136719 C 69.773438 326.246094 67.519531 324.304688 65.3125 322.304688 C 63.105469 320.304688 60.949219 318.25 58.84375 316.144531 C 56.738281 314.039062 54.6875 311.882812 52.6875 309.679688 C 50.6875 307.472656 48.742188 305.21875 46.855469 302.917969 C 44.964844 300.613281 43.132812 298.269531 41.359375 295.875 C 39.585938 293.484375 37.871094 291.050781 36.21875 288.574219 C 34.5625 286.097656 32.972656 283.585938 31.441406 281.03125 C 29.910156 278.476562 28.441406 275.886719 27.039062 273.261719 C 25.636719 270.632812 24.296875 267.976562 23.023438 265.285156 C 21.75 262.59375 20.542969 259.871094 19.40625 257.121094 C 18.265625 254.371094 17.195312 251.59375 16.191406 248.789062 C 15.1875 245.984375 14.253906 243.160156 13.390625 240.308594 C 12.527344 237.460938 11.730469 234.589844 11.007812 231.703125 C 10.285156 228.8125 9.632812 225.910156 9.050781 222.988281 C 8.46875 220.070312 7.960938 217.136719 7.523438 214.191406 C 7.085938 211.246094 6.722656 208.292969 6.433594 205.328125 C 6.140625 202.363281 5.921875 199.394531 5.773438 196.421875 C 5.628906 193.449219 5.554688 190.472656 5.554688 187.496094 C 5.554688 184.515625 5.628906 181.542969 5.773438 178.566406 C 5.921875 175.59375 6.140625 172.625 6.433594 169.660156 C 6.722656 166.699219 7.085938 163.746094 7.523438 160.800781 C 7.960938 157.855469 8.46875 154.921875 9.050781 152 C 9.632812 149.078125 10.285156 146.175781 11.007812 143.289062 C 11.730469 140.398438 12.527344 137.53125 13.390625 134.679688 C 14.253906 131.832031 15.1875 129.003906 16.191406 126.203125 C 17.195312 123.398438 18.265625 120.621094 19.40625 117.871094 C 20.542969 115.117188 21.75 112.398438 23.023438 109.707031 C 24.296875 107.015625 25.636719 104.355469 27.039062 101.730469 C 28.441406 99.101562 29.910156 96.511719 31.441406 93.960938 C 32.972656 91.40625 34.5625 88.890625 36.21875 86.414062 C 37.871094 83.9375 39.585938 81.503906 41.359375 79.113281 C 43.132812 76.722656 44.964844 74.375 46.855469 72.074219 C 48.742188 69.773438 50.6875 67.519531 52.6875 65.3125 C 54.6875 63.105469 56.738281 60.949219 58.84375 58.84375 C 60.949219 56.738281 63.105469 54.6875 65.3125 52.6875 C 67.519531 50.6875 69.773438 48.742188 72.074219 46.855469 C 74.375 44.964844 76.722656 43.132812 79.113281 41.359375 C 81.503906 39.585938 83.9375 37.871094 86.414062 36.21875 C 88.890625 34.5625 91.40625 32.972656 93.960938 31.441406 C 96.511719 29.910156 99.101562 28.441406 101.730469 27.039062 C 104.355469 25.636719 107.015625 24.296875 109.707031 23.023438 C 112.398438 21.75 115.117188 20.542969 117.871094 19.40625 C 120.621094 18.265625 123.398438 17.195312 126.203125 16.191406 C 129.003906 15.1875 131.832031 14.253906 134.679688 13.390625 C 137.53125 12.527344 140.398438 11.730469 143.289062 11.007812 C 146.175781 10.285156 149.078125 9.632812 152 9.050781 C 154.921875 8.46875 157.855469 7.960938 160.800781 7.523438 C 163.746094 7.085938 166.699219 6.722656 169.660156 6.433594 C 172.625 6.140625 175.59375 5.921875 178.566406 5.773438 C 181.542969 5.628906 184.515625 5.554688 187.496094 5.554688 C 190.472656 5.554688 193.449219 5.628906 196.421875 5.773438 C 199.394531 5.921875 202.363281 6.140625 205.328125 6.433594 C 208.292969 6.722656 211.246094 7.085938 214.191406 7.523438 C 217.136719 7.960938 220.070312 8.46875 222.988281 9.050781 C 225.910156 9.632812 228.8125 10.285156 231.703125 11.007812 C 234.589844 11.730469 237.460938 12.527344 240.308594 13.390625 C 243.160156 14.253906 245.984375 15.1875 248.789062 16.191406 C 251.59375 17.195312 254.371094 18.265625 257.121094 19.40625 C 259.871094 20.542969 262.59375 21.75 265.285156 23.023438 C 267.976562 24.296875 270.632812 25.636719 273.261719 27.039062 C 275.886719 28.441406 278.476562 29.910156 281.03125 31.441406 C 283.585938 32.972656 286.097656 34.5625 288.574219 36.21875 C 291.050781 37.871094 293.484375 39.585938 295.875 41.359375 C 298.269531 43.132812 300.613281 44.964844 302.917969 46.855469 C 305.21875 48.742188 307.472656 50.6875 309.679688 52.6875 C 311.882812 54.6875 314.039062 56.738281 316.144531 58.84375 C 318.25 60.949219 320.304688 63.105469 322.304688 65.3125 C 324.304688 67.519531 326.246094 69.773438 328.136719 72.074219 C 330.023438 74.375 331.855469 76.722656 333.628906 79.113281 C 335.402344 81.503906 337.117188 83.9375 338.773438 86.414062 C 340.425781 88.890625 342.019531 91.40625 343.550781 93.960938 C 345.082031 96.511719 346.546875 99.101562 347.953125 101.730469 C 349.355469 104.355469 350.691406 107.015625 351.964844 109.707031 C 353.238281 112.398438 354.445312 115.117188 355.585938 117.871094 C 356.722656 120.621094 357.796875 123.398438 358.800781 126.203125 C 359.800781 129.003906 360.734375 131.832031 361.601562 134.679688 C 362.464844 137.53125 363.257812 140.398438 363.980469 143.289062 C 364.707031 146.175781 365.359375 149.078125 365.9375 152 C 366.519531 154.921875 367.027344 157.855469 367.464844 160.800781 C 367.902344 163.746094 368.265625 166.699219 368.558594 169.660156 C 368.851562 172.625 369.070312 175.59375 369.214844 178.566406 C 369.363281 181.542969 369.433594 184.515625 369.433594 187.496094 Z M 369.433594 187.496094 " fill-opacity="1" fill-rule="nonzero"/></g><path fill="#ffffff" d="M 145.539062 247.945312 C 144.347656 247.945312 143.234375 247.199219 142.863281 246.011719 C 139.003906 233.757812 127.789062 225.515625 114.941406 225.515625 C 102.09375 225.515625 90.882812 233.757812 87.019531 246.011719 C 86.574219 247.347656 85.3125 248.167969 83.902344 247.945312 C 82.5625 247.71875 81.523438 246.53125 81.523438 245.195312 L 81.523438 119.398438 C 81.523438 100.980469 96.523438 85.980469 114.941406 85.980469 C 133.359375 85.980469 148.359375 100.980469 148.359375 119.398438 L 148.359375 245.121094 C 148.359375 246.53125 147.320312 247.644531 145.984375 247.871094 C 145.835938 247.945312 145.6875 247.945312 145.539062 247.945312 Z M 114.941406 219.871094 C 126.15625 219.871094 136.328125 225.144531 142.789062 233.683594 L 142.789062 119.398438 C 142.789062 104.027344 130.3125 91.550781 114.941406 91.550781 C 99.570312 91.550781 87.09375 104.027344 87.09375 119.398438 L 87.09375 233.683594 C 93.554688 225.144531 103.730469 219.871094 114.941406 219.871094 Z M 114.941406 219.871094 " fill-opacity="1" fill-rule="nonzero"/><path fill="#ffffff" d="M 95.929688 218.164062 C 94.371094 218.164062 93.109375 216.902344 93.109375 215.34375 L 93.109375 119.398438 C 93.109375 107.367188 102.910156 97.640625 114.867188 97.640625 C 126.824219 97.640625 136.625 107.441406 136.625 119.398438 C 136.625 120.957031 135.363281 122.21875 133.804688 122.21875 C 132.246094 122.21875 130.980469 120.957031 130.980469 119.398438 C 130.980469 110.488281 123.703125 103.207031 114.792969 103.207031 C 105.882812 103.207031 98.605469 110.488281 98.605469 119.398438 L 98.605469 215.34375 C 98.753906 216.902344 97.492188 218.164062 95.929688 218.164062 Z M 95.929688 218.164062 " fill-opacity="1" fill-rule="nonzero"/><path fill="#ffffff" d="M 114.941406 289.679688 C 95.707031 289.679688 80.039062 274.007812 80.039062 254.777344 C 80.039062 235.542969 95.707031 219.871094 114.941406 219.871094 C 134.175781 219.871094 149.84375 235.542969 149.84375 254.777344 C 149.84375 274.007812 134.175781 289.679688 114.941406 289.679688 Z M 114.941406 225.515625 C 98.753906 225.515625 85.609375 238.660156 85.609375 254.851562 C 85.609375 271.039062 98.753906 284.183594 114.941406 284.183594 C 131.132812 284.183594 144.273438 271.039062 144.273438 254.851562 C 144.199219 238.660156 131.058594 225.515625 114.941406 225.515625 Z M 114.941406 225.515625 " fill-opacity="1" fill-rule="nonzero"/><path fill="#ffffff" d="M 249.207031 246.308594 C 248.910156 246.308594 248.613281 246.234375 248.316406 246.160156 C 246.828125 245.640625 246.085938 244.082031 246.605469 242.597656 L 288.265625 121.328125 C 290.644531 114.347656 290.570312 105.289062 283.144531 100.980469 L 279.28125 98.753906 C 276.089844 96.898438 272.671875 96.523438 269.40625 97.789062 C 266.210938 98.976562 263.242188 101.574219 261.234375 105.140625 L 204.796875 202.867188 C 204.054688 204.203125 202.347656 204.648438 201.011719 203.90625 C 199.671875 203.164062 199.226562 201.457031 199.972656 200.121094 L 256.410156 102.390625 C 259.082031 97.714844 263.09375 94.222656 267.546875 92.589844 C 272.375 90.808594 277.574219 91.328125 282.179688 94 L 286.039062 96.226562 C 294.578125 101.128906 297.550781 111.75 293.613281 123.183594 L 251.953125 244.453125 C 251.433594 245.566406 250.394531 246.308594 249.207031 246.308594 Z M 249.207031 246.308594 " fill-opacity="1" fill-rule="nonzero"/><path fill="#ffffff" d="M 114.570312 289.679688 C 113.011719 289.679688 111.75 288.414062 111.75 286.855469 C 111.75 285.296875 113.011719 284.035156 114.570312 284.035156 L 204.574219 284.035156 C 216.679688 284.035156 228.785156 278.761719 236.953125 269.925781 C 243.859375 262.425781 247.273438 253.066406 246.457031 243.710938 C 243.488281 212.074219 202.273438 204.203125 201.828125 204.128906 C 200.34375 203.832031 199.300781 202.421875 199.597656 200.863281 C 199.898438 199.375 201.308594 198.335938 202.867188 198.632812 C 203.3125 198.707031 214.378906 200.789062 225.960938 207.175781 C 241.632812 215.789062 250.617188 228.265625 252.027344 243.191406 C 252.917969 254.179688 249.058594 265.023438 241.039062 273.636719 C 231.828125 283.589844 218.238281 289.605469 204.574219 289.605469 Z M 114.570312 289.679688 " fill-opacity="1" fill-rule="nonzero"/><path fill="#ffffff" d="M 252.175781 117.914062 L 145.242188 117.914062 C 143.679688 117.914062 142.417969 116.648438 142.417969 115.089844 C 142.417969 113.53125 143.679688 112.269531 145.242188 112.269531 L 252.101562 112.269531 C 253.660156 112.269531 254.925781 113.53125 254.925781 115.089844 C 254.925781 116.648438 253.660156 117.914062 252.175781 117.914062 Z M 252.175781 117.914062 " fill-opacity="1" fill-rule="nonzero"/><path fill="#ffffff" d="M 114.941406 274.230469 C 104.25 274.230469 95.484375 265.542969 95.484375 254.777344 C 95.484375 244.007812 104.175781 235.320312 114.941406 235.320312 C 125.636719 235.320312 134.398438 244.007812 134.398438 254.777344 C 134.398438 265.542969 125.636719 274.230469 114.941406 274.230469 Z M 114.941406 240.964844 C 107.292969 240.964844 101.054688 247.199219 101.054688 254.851562 C 101.054688 262.5 107.292969 268.738281 114.941406 268.738281 C 122.589844 268.738281 128.828125 262.5 128.828125 254.851562 C 128.828125 247.199219 122.589844 240.964844 114.941406 240.964844 Z M 114.941406 240.964844 " fill-opacity="1" fill-rule="nonzero"/><path fill="#ffffff" d="M 172.644531 135.511719 L 156.601562 135.511719 C 155.042969 135.511719 153.78125 134.25 153.78125 132.691406 C 153.78125 131.132812 155.042969 129.867188 156.601562 129.867188 L 172.644531 129.867188 C 174.203125 129.867188 175.464844 131.132812 175.464844 132.691406 C 175.464844 134.25 174.203125 135.511719 172.644531 135.511719 Z M 172.644531 135.511719 " fill-opacity="1" fill-rule="nonzero"/><path fill="#ffffff" d="M 204.203125 135.511719 L 188.164062 135.511719 C 186.605469 135.511719 185.339844 134.25 185.339844 132.691406 C 185.339844 131.132812 186.605469 129.867188 188.164062 129.867188 L 204.203125 129.867188 C 205.761719 129.867188 207.027344 131.132812 207.027344 132.691406 C 206.953125 134.25 205.6875 135.511719 204.203125 135.511719 Z M 204.203125 135.511719 " fill-opacity="1" fill-rule="nonzero"/><path fill="#ffffff" d="M 232.199219 135.511719 L 219.648438 135.511719 C 218.089844 135.511719 216.828125 134.25 216.828125 132.691406 C 216.828125 131.132812 218.089844 129.867188 219.648438 129.867188 L 232.199219 129.867188 C 233.757812 129.867188 235.023438 131.132812 235.023438 132.691406 C 235.023438 134.25 233.757812 135.511719 232.199219 135.511719 Z M 232.199219 135.511719 " fill-opacity="1" fill-rule="nonzero"/><path fill="#ffffff" d="M 172.644531 169.671875 L 156.601562 169.671875 C 155.042969 169.671875 153.78125 168.410156 153.78125 166.851562 C 153.78125 165.289062 155.042969 164.027344 156.601562 164.027344 L 172.644531 164.027344 C 174.203125 164.027344 175.464844 165.289062 175.464844 166.851562 C 175.464844 168.410156 174.203125 169.671875 172.644531 169.671875 Z M 172.644531 169.671875 " fill-opacity="1" fill-rule="nonzero"/><path fill="#ffffff" d="M 204.203125 169.671875 L 188.164062 169.671875 C 186.605469 169.671875 185.339844 168.410156 185.339844 166.851562 C 185.339844 165.289062 186.605469 164.027344 188.164062 164.027344 L 204.203125 164.027344 C 205.761719 164.027344 207.027344 165.289062 207.027344 166.851562 C 207.027344 168.410156 205.6875 169.671875 204.203125 169.671875 Z M 204.203125 169.671875 " fill-opacity="1" fill-rule="nonzero"/><path fill="#ffffff" d="M 172.644531 203.832031 L 156.601562 203.832031 C 155.042969 203.832031 153.78125 202.570312 153.78125 201.011719 C 153.78125 199.449219 155.042969 198.1875 156.601562 198.1875 L 172.644531 198.1875 C 174.203125 198.1875 175.464844 199.449219 175.464844 201.011719 C 175.464844 202.570312 174.203125 203.832031 172.644531 203.832031 Z M 172.644531 203.832031 " fill-opacity="1" fill-rule="nonzero"/><path fill="#ffffff" d="M 194.847656 203.832031 L 188.164062 203.832031 C 186.605469 203.832031 185.339844 202.570312 185.339844 201.011719 C 185.339844 199.449219 186.605469 198.1875 188.164062 198.1875 L 194.847656 198.1875 C 196.40625 198.1875 197.667969 199.449219 197.667969 201.011719 C 197.667969 202.570312 196.40625 203.832031 194.847656 203.832031 Z M 194.847656 203.832031 " fill-opacity="1" fill-rule="nonzero"/><path fill="#ffffff" d="M 172.644531 237.917969 L 156.601562 237.917969 C 155.042969 237.917969 153.78125 236.65625 153.78125 235.097656 C 153.78125 233.535156 155.042969 232.273438 156.601562 232.273438 L 172.644531 232.273438 C 174.203125 232.273438 175.464844 233.535156 175.464844 235.097656 C 175.464844 236.730469 174.203125 237.917969 172.644531 237.917969 Z M 172.644531 237.917969 " fill-opacity="1" fill-rule="nonzero"/><path fill="#ffffff" d="M 204.203125 237.917969 L 188.164062 237.917969 C 186.605469 237.917969 185.339844 236.65625 185.339844 235.097656 C 185.339844 233.535156 186.605469 232.273438 188.164062 232.273438 L 204.203125 232.273438 C 205.761719 232.273438 207.027344 233.535156 207.027344 235.097656 C 206.953125 236.730469 205.6875 237.917969 204.203125 237.917969 Z M 204.203125 237.917969 " fill-opacity="1" fill-rule="nonzero"/><path fill="#ffffff" d="M 235.691406 237.917969 L 219.648438 237.917969 C 218.089844 237.917969 216.828125 236.65625 216.828125 235.097656 C 216.828125 233.535156 218.089844 232.273438 219.648438 232.273438 L 235.691406 232.273438 C 237.25 232.273438 238.511719 233.535156 238.511719 235.097656 C 238.511719 236.730469 237.25 237.917969 235.691406 237.917969 Z M 235.691406 237.917969 " fill-opacity="1" fill-rule="nonzero"/><path fill="#ffffff" d="M 172.644531 272.078125 L 156.601562 272.078125 C 155.042969 272.078125 153.78125 270.816406 153.78125 269.257812 C 153.78125 267.695312 155.042969 266.433594 156.601562 266.433594 L 172.644531 266.433594 C 174.203125 266.433594 175.464844 267.695312 175.464844 269.257812 C 175.464844 270.816406 174.203125 272.078125 172.644531 272.078125 Z M 172.644531 272.078125 " fill-opacity="1" fill-rule="nonzero"/><path fill="#ffffff" d="M 204.203125 272.078125 L 188.164062 272.078125 C 186.605469 272.078125 185.339844 270.816406 185.339844 269.257812 C 185.339844 267.695312 186.605469 266.433594 188.164062 266.433594 L 204.203125 266.433594 C 205.761719 266.433594 207.027344 267.695312 207.027344 269.257812 C 206.953125 270.816406 205.6875 272.078125 204.203125 272.078125 Z M 204.203125 272.078125 " fill-opacity="1" fill-rule="nonzero"/></svg>