<svg xmlns="http://www.w3.org/2000/svg" xmlns:xlink="http://www.w3.org/1999/xlink" width="500" zoomAndPan="magnify" viewBox="0 0 375 374.999991" height="500" preserveAspectRatio="xMidYMid meet" version="1.0"><defs><clipPath id="ea1e526ea6"><path d="M 6.078125 5.640625 L 369.792969 5.640625 L 369.792969 369.359375 L 6.078125 369.359375 Z M 6.078125 5.640625 " clip-rule="nonzero"/></clipPath><clipPath id="c3f5f89a8c"><path d="M 187.933594 5.640625 C 87.496094 5.640625 6.078125 87.0625 6.078125 187.5 C 6.078125 287.9375 87.496094 369.359375 187.933594 369.359375 C 288.371094 369.359375 369.792969 287.9375 369.792969 187.5 C 369.792969 87.0625 288.371094 5.640625 187.933594 5.640625 Z M 187.933594 5.640625 " clip-rule="nonzero"/></clipPath><clipPath id="1d441580b9"><path d="M 61.285156 52 L 314 52 L 314 304 L 61.285156 304 Z M 61.285156 52 " clip-rule="nonzero"/></clipPath></defs><g clip-path="url(#ea1e526ea6)"><g clip-path="url(#c3f5f89a8c)"><path fill="#2dade2" d="M 6.078125 5.640625 L 369.792969 5.640625 L 369.792969 369.359375 L 6.078125 369.359375 Z M 6.078125 5.640625 " fill-opacity="1" fill-rule="nonzero"/></g></g><g clip-path="url(#1d441580b9)"><path fill="#ffffff" d="M 238.183594 52.542969 C 237.15625 52.59375 236.171875 52.816406 235.199219 53.117188 C 235.195312 53.121094 235.191406 53.117188 235.1875 53.117188 C 234.457031 53.261719 233.777344 53.53125 233.144531 53.929688 C 221.785156 60.808594 204.847656 64.628906 187.917969 64.703125 C 170.988281 64.777344 154.070312 61.105469 142.785156 54.480469 C 142.328125 54.203125 141.84375 53.992188 141.328125 53.847656 C 138.597656 52.542969 135.484375 52.121094 132.453125 53.128906 C 132.449219 53.128906 132.445312 53.128906 132.441406 53.128906 L 105.5625 62.097656 C 100.679688 63.730469 97.34375 68.355469 97.34375 73.496094 L 97.34375 159.316406 C 97.34375 175.984375 83.964844 189.367188 67.292969 189.367188 C 66.898438 189.367188 66.507812 189.40625 66.121094 189.480469 C 65.734375 189.558594 65.359375 189.671875 64.996094 189.824219 C 64.628906 189.976562 64.285156 190.160156 63.957031 190.378906 C 63.628906 190.597656 63.324219 190.847656 63.046875 191.125 C 62.765625 191.40625 62.515625 191.710938 62.296875 192.039062 C 62.078125 192.367188 61.894531 192.710938 61.742188 193.078125 C 61.589844 193.441406 61.476562 193.816406 61.398438 194.203125 C 61.324219 194.589844 61.285156 194.980469 61.285156 195.375 L 61.285156 297.546875 C 61.285156 297.941406 61.324219 298.332031 61.398438 298.71875 C 61.476562 299.105469 61.589844 299.480469 61.742188 299.847656 C 61.894531 300.210938 62.078125 300.558594 62.296875 300.886719 C 62.515625 301.214844 62.765625 301.515625 63.046875 301.796875 C 63.324219 302.074219 63.628906 302.324219 63.957031 302.542969 C 64.285156 302.761719 64.628906 302.949219 64.996094 303.097656 C 65.359375 303.25 65.734375 303.363281 66.121094 303.441406 C 66.507812 303.519531 66.898438 303.558594 67.292969 303.558594 L 163.457031 303.558594 C 175.214844 303.558594 185.847656 298.652344 193.492188 290.832031 C 201.144531 298.664062 211.792969 303.558594 223.554688 303.558594 L 307.695312 303.558594 C 308.089844 303.558594 308.480469 303.519531 308.867188 303.441406 C 309.257812 303.363281 309.632812 303.25 309.996094 303.097656 C 310.359375 302.949219 310.707031 302.761719 311.035156 302.542969 C 311.363281 302.324219 311.667969 302.074219 311.945312 301.796875 C 312.226562 301.515625 312.472656 301.214844 312.695312 300.886719 C 312.914062 300.558594 313.097656 300.210938 313.25 299.847656 C 313.398438 299.480469 313.515625 299.105469 313.589844 298.71875 C 313.667969 298.332031 313.707031 297.941406 313.707031 297.546875 L 313.707031 195.375 C 313.707031 194.980469 313.667969 194.589844 313.589844 194.203125 C 313.515625 193.816406 313.398438 193.441406 313.25 193.078125 C 313.097656 192.710938 312.914062 192.367188 312.695312 192.039062 C 312.472656 191.710938 312.226562 191.40625 311.945312 191.125 C 311.667969 190.847656 311.363281 190.597656 311.035156 190.378906 C 310.707031 190.160156 310.359375 189.976562 309.996094 189.824219 C 309.632812 189.671875 309.257812 189.558594 308.867188 189.480469 C 308.480469 189.40625 308.089844 189.367188 307.695312 189.367188 C 291.027344 189.367188 277.644531 175.984375 277.644531 159.316406 L 277.644531 73.496094 C 277.644531 68.355469 274.300781 63.726562 269.417969 62.097656 L 269.40625 62.085938 L 242.535156 53.128906 C 241.105469 52.652344 239.625 52.472656 238.183594 52.542969 Z M 136.234375 64.539062 C 136.242188 64.542969 136.25 64.546875 136.257812 64.550781 L 182.0625 161.875 C 182.089844 161.9375 182.121094 162 182.15625 162.0625 C 181.757812 164.707031 181.484375 167.367188 181.484375 170.054688 L 181.484375 201.386719 L 73.304688 201.386719 L 73.304688 200.164062 C 93.515625 197.121094 109.363281 180.351562 109.363281 159.316406 L 109.363281 73.496094 Z M 238.746094 64.539062 L 265.613281 73.496094 C 265.617188 73.496094 265.621094 73.496094 265.625 73.496094 L 265.625 159.316406 C 265.625 180.351562 281.472656 197.121094 301.6875 200.164062 L 301.6875 201.386719 L 193.503906 201.386719 L 193.503906 170.054688 C 193.503906 163.859375 194.875 157.757812 197.507812 152.15625 L 238.722656 64.5625 C 238.730469 64.558594 238.734375 64.546875 238.746094 64.539062 Z M 152.492188 70.820312 C 163.578125 74.394531 175.496094 76.78125 187.976562 76.726562 C 199.695312 76.671875 211.421875 75.101562 222.019531 71.828125 L 187.496094 145.195312 Z M 73.304688 213.40625 L 181.484375 213.40625 L 181.484375 231.4375 L 73.304688 231.4375 Z M 193.503906 213.40625 L 301.6875 213.40625 L 301.6875 231.4375 L 193.503906 231.4375 Z M 73.304688 243.457031 L 181.484375 243.457031 L 181.484375 261.488281 L 73.304688 261.488281 Z M 193.503906 243.457031 L 301.6875 243.457031 L 301.6875 261.488281 L 193.503906 261.488281 Z M 73.304688 273.507812 L 183.269531 273.507812 C 184.050781 276.113281 185.074219 278.613281 186.320312 280.984375 C 180.816406 287.445312 172.652344 291.535156 163.457031 291.535156 L 73.304688 291.535156 Z M 196.019531 273.507812 L 301.6875 273.507812 L 301.6875 291.535156 L 223.554688 291.535156 C 213.226562 291.535156 204.179688 286.382812 198.777344 278.507812 C 198.671875 278.324219 198.558594 278.148438 198.4375 277.980469 C 198.433594 277.972656 198.429688 277.964844 198.425781 277.957031 C 197.503906 276.550781 196.695312 275.0625 196.019531 273.507812 Z M 196.019531 273.507812 " fill-opacity="1" fill-rule="nonzero"/></g></svg>