<?xml version="1.0" encoding="UTF-8"?>
<!-- Generator: Adobe Illustrator 26.0.1, SVG Export Plug-In . SVG Version: 6.00 Build 0)  -->
<svg xmlns="http://www.w3.org/2000/svg" xmlns:xlink="http://www.w3.org/1999/xlink" version="1.1" id="Layer_1" x="0px" y="0px" viewBox="0 0 211.3 130.2" style="enable-background:new 0 0 211.3 130.2;" xml:space="preserve">
<style type="text/css">
	.st0{fill:#80BC00;}
	.st1{fill:#007934;}
</style>
<g>
	<path class="st0" d="M63.1,110L17.6,65.1l45.5-44.8V0c-0.3,0.2-0.5,0.4-0.8,0.7L2.1,60c-2.9,2.8-2.9,7.4,0,10.2l60.2,59.4   c0.2,0.2,0.5,0.5,0.8,0.7V110z"></path>
	<path class="st0" d="M148.1,110l45.6-44.7l-45.3-45L148.4,0c0.3,0.2,0.5,0.4,0.8,0.7l60,59.5c2.8,2.8,2.8,7.4,0,10.2l-60.3,59.2   c-0.2,0.2-0.5,0.5-0.8,0.7L148.1,110z"></path>
	<path class="st1" d="M61.8,86.9c2.2,0,3.4-1.4,3.4-3.4c0-1.9-1.3-3.3-3.4-3.3h-4.6v6.7H61.8z M61.4,76.8c1.9,0,2.9-1.3,2.9-3   c0-1.7-1-2.9-3-2.9h-4.1v5.8H61.4z M53.1,68.7c0-0.9,0.5-1.4,1.4-1.4h7c4.2,0,7.3,2.2,7.3,6c0,2.2-1.1,4-2.8,5v0.1   c2.5,0.7,3.8,3.1,3.8,5.4c0,4.6-3.7,6.7-8.1,6.7h-7.1c-0.9,0-1.4-0.5-1.4-1.4V68.7z"></path>
	<path class="st1" d="M71.6,75.2c0-0.9,0.5-1.4,1.4-1.4h1.5c0.9,0,1.4,0.5,1.4,1.4v13.9c0,0.9-0.5,1.4-1.4,1.4H73   c-0.9,0-1.4-0.5-1.4-1.4V75.2z M71.6,69.7v-1c0-0.9,0.5-1.4,1.4-1.4h1.5c0.9,0,1.4,0.5,1.4,1.4v1c0,0.9-0.5,1.3-1.4,1.3H73   C72.1,71,71.6,70.6,71.6,69.7"></path>
	<path class="st1" d="M86.8,87.4c2.7,0,5-2.1,5-5.2c0-3.1-2.3-5.2-5-5.2c-2.7,0-5,2.1-5,5.2C81.8,85.3,84.1,87.4,86.8,87.4    M86.8,73.5c5.1,0,9.3,3.6,9.3,8.7c0,5.1-4.2,8.7-9.3,8.7c-5.1,0-9.3-3.6-9.3-8.7C77.5,77.1,81.7,73.5,86.8,73.5"></path>
	<path class="st1" d="M97.1,87.3l0.4-0.6c0.5-0.7,1.1-0.7,1.9-0.3c0.8,0.4,2,1.1,3.8,1.1c1.5,0,2.3-0.7,2.3-1.7   c0-2.7-8.4-1.7-8.4-7.4c0-3.3,2.9-5,6.4-5c2.2,0,3.8,0.7,4.7,1.2c0.8,0.4,0.9,1.1,0.5,1.8l-0.3,0.6c-0.4,0.8-1,0.9-1.9,0.5   c-0.7-0.3-1.8-0.8-3.2-0.8c-1.5,0-2.3,0.6-2.3,1.6c0,2.7,8.4,1.7,8.4,7.3c0,2.9-2.5,5.1-6.4,5.1c-2.7,0-4.6-1-5.6-1.7   C96.7,88.8,96.6,88,97.1,87.3"></path>
	<path class="st1" d="M112.2,77.4h-0.9c-0.9,0-1.4-0.5-1.4-1.4v-0.6c0-0.9,0.5-1.4,1.4-1.4h1v-3.4c0-0.9,0.5-1.4,1.4-1.4h1.3   c0.9,0,1.4,0.5,1.4,1.4v3.4h2.4c0.9,0,1.4,0.5,1.4,1.4V76c0,0.9-0.5,1.4-1.4,1.4h-2.5v6.5c0,2.5,1.6,3,2.7,3.1   c1,0.1,1.4,0.4,1.4,1.3v1c0,1-0.6,1.4-1.7,1.4c-3,0-6.6-1.6-6.6-6.1V77.4z"></path>
	<path class="st1" d="M127.4,87.7c2.3,0,3.9-2.3,3.9-4.4v-0.6h-0.7c-2.1,0-5.7,0.3-5.7,2.8C124.9,86.6,125.7,87.7,127.4,87.7    M130.6,80.2h0.7v-0.4c0-2.2-1.4-2.9-3.1-2.9c-1.4,0-2.7,0.5-3.5,0.9c-0.8,0.4-1.5,0.2-1.8-0.6l-0.3-0.6c-0.4-0.7-0.3-1.4,0.5-1.8   c1.1-0.6,3-1.4,5.5-1.4c4.4,0,7,2.4,7,6.6v9c0,0.9-0.5,1.4-1.4,1.4H133c-0.9,0-1.4-0.5-1.4-1.4v-0.7c0-0.5,0.1-0.7,0.1-0.7h-0.1   c0,0-1.6,3.1-5.3,3.1c-3.1,0-5.6-2-5.6-5C120.7,81,126.8,80.2,130.6,80.2"></path>
	<path class="st1" d="M137.4,75.2c0-0.9,0.5-1.4,1.4-1.4h1.5c0.9,0,1.4,0.5,1.4,1.4v13.9c0,0.9-0.5,1.4-1.4,1.4h-1.5   c-0.9,0-1.4-0.5-1.4-1.4V75.2z M137.4,69.7v-1c0-0.9,0.5-1.4,1.4-1.4h1.5c0.9,0,1.4,0.5,1.4,1.4v1c0,0.9-0.5,1.3-1.4,1.3h-1.5   C137.8,71,137.4,70.6,137.4,69.7"></path>
	<path class="st1" d="M143.7,75.2c0-0.9,0.5-1.4,1.4-1.4h1.3c0.9,0,1.4,0.5,1.4,1.4v1c0,0.4-0.1,0.7-0.1,0.7h0.1   c0.7-1.4,2.6-3.5,6-3.5c3.7,0,5.9,1.9,5.9,6.3v9.3c0,0.9-0.5,1.4-1.4,1.4h-1.4c-0.9,0-1.4-0.5-1.4-1.4v-8.5c0-2-0.5-3.4-2.6-3.4   c-3,0-4.9,2.4-4.9,5.4v6.4c0,0.9-0.5,1.4-1.4,1.4h-1.5c-0.9,0-1.4-0.5-1.4-1.4V75.2z"></path>
	<path class="st1" d="M64.3,49.2l-2.5-6.9c-0.3-0.9-0.7-2.5-0.7-2.5H61c0,0-0.4,1.6-0.7,2.5l-2.6,6.9H64.3z M59.8,38.4   c0.1-0.4,0.4-0.5,0.7-0.5h0.9c0.4,0,0.6,0.2,0.7,0.5l6.6,17.7c0.1,0.5-0.1,0.8-0.5,0.8h-0.6c-0.4,0-0.7-0.2-0.8-0.5l-2.1-5.5h-7.7   l-2,5.5c-0.1,0.4-0.4,0.5-0.8,0.5h-0.6c-0.5,0-0.7-0.3-0.6-0.8L59.8,38.4z"></path>
	<path class="st1" d="M69.8,44c0-0.4,0.2-0.7,0.7-0.7H71c0.4,0,0.7,0.2,0.7,0.7v7.5c0,2.1,0.3,4,3,4c3.1,0,5.1-2.7,5.1-5.7V44   c0-0.4,0.2-0.7,0.7-0.7h0.5c0.4,0,0.7,0.2,0.7,0.7v12.2c0,0.4-0.2,0.7-0.7,0.7h-0.5c-0.4,0-0.7-0.2-0.7-0.7v-1.6c0-0.5,0.1-1,0.1-1   h-0.1c-0.5,1.3-2.4,3.5-5.4,3.5c-3.3,0-4.6-1.7-4.6-5.3V44z"></path>
	<path class="st1" d="M83.7,54.7l0.2-0.3c0.2-0.3,0.5-0.4,0.9-0.1c0.6,0.5,1.9,1.2,3.6,1.2c1.5,0,2.8-0.8,2.8-2.2   c0-3.1-7.4-2.1-7.4-6.6c0-2.5,2.2-3.8,4.7-3.8c2,0,3.2,0.7,3.8,1.1c0.4,0.2,0.4,0.5,0.2,0.9l-0.2,0.3c-0.2,0.4-0.5,0.4-0.9,0.2   c-0.5-0.3-1.5-0.9-3-0.9c-1.4,0-2.7,0.6-2.7,2.1c0,3.1,7.3,2.1,7.3,6.7c0,2.2-1.9,3.8-4.7,3.8c-2.4,0-4-1-4.7-1.6   C83.5,55.4,83.5,55.1,83.7,54.7"></path>
	<path class="st1" d="M95.7,44.9h-1.1c-0.4,0-0.7-0.2-0.7-0.6v-0.2c0-0.4,0.2-0.7,0.7-0.7h1.2v-3.2c0-0.4,0.2-0.7,0.7-0.7h0.5   c0.4,0,0.7,0.2,0.7,0.7v3.2h2.8c0.4,0,0.7,0.2,0.7,0.7v0.2c0,0.4-0.2,0.6-0.7,0.6h-2.8v6.8c0,3.1,1.9,3.5,3,3.6   c0.5,0.1,0.7,0.2,0.7,0.7v0.3c0,0.4-0.2,0.6-0.8,0.6c-3,0-4.8-1.8-4.8-5V44.9z"></path>
	<path class="st1" d="M103.5,44c0-0.4,0.2-0.7,0.7-0.7h0.5c0.4,0,0.7,0.2,0.7,0.7v1.8c0,0.6-0.1,1.1-0.1,1.1h0.1   c0.7-2,2.2-3.7,4.4-3.7c0.5,0,0.7,0.2,0.7,0.6v0.5c0,0.4-0.3,0.7-0.8,0.7c-2.9,0-4.3,3.3-4.3,6.1v5.1c0,0.4-0.2,0.7-0.7,0.7h-0.5   c-0.4,0-0.7-0.2-0.7-0.7V44z"></path>
	<path class="st1" d="M115.2,55.7c2.7,0,4.2-2.7,4.2-5.1v-0.6h-0.8c-2.2,0-6.5,0.1-6.5,3.1C112.1,54.3,113.2,55.7,115.2,55.7    M118.6,48.6h0.8v-0.4c0-2.6-1.5-3.5-3.4-3.5c-1.5,0-2.7,0.6-3.3,0.9c-0.4,0.2-0.7,0.1-0.9-0.2l-0.2-0.3c-0.2-0.3-0.2-0.7,0.2-0.9   c0.7-0.4,2.2-1.2,4.4-1.2c3.3,0,5.1,1.8,5.1,5.2v8c0,0.4-0.2,0.7-0.7,0.7h-0.4c-0.4,0-0.7-0.2-0.7-0.7v-1.1c0-0.6,0.1-1,0.1-1h-0.1   c0,0-1.2,3.1-4.7,3.1c-2.3,0-4.7-1.3-4.7-4C110.2,48.8,116,48.6,118.6,48.6"></path>
	<path class="st1" d="M124.1,38.6c0-0.4,0.2-0.7,0.7-0.7h0.5c0.4,0,0.7,0.2,0.7,0.7v14.8c0,1.7,0.8,1.9,1.4,2c0.3,0,0.6,0.2,0.6,0.6   v0.4c0,0.4-0.2,0.7-0.7,0.7c-1.1,0-3.1-0.4-3.1-3.3V38.6z"></path>
	<path class="st1" d="M130.1,44c0-0.4,0.2-0.7,0.7-0.7h0.5c0.4,0,0.7,0.2,0.7,0.7v12.2c0,0.4-0.2,0.7-0.7,0.7h-0.5   c-0.4,0-0.7-0.2-0.7-0.7V44z M130,39.5v-1c0-0.4,0.2-0.7,0.7-0.7h0.7c0.4,0,0.7,0.2,0.7,0.7v1c0,0.4-0.2,0.6-0.7,0.6h-0.7   C130.2,40.2,130,40,130,39.5"></path>
	<path class="st1" d="M139.3,55.7c2.7,0,4.2-2.7,4.2-5.1v-0.6h-0.8c-2.2,0-6.5,0.1-6.5,3.1C136.2,54.3,137.2,55.7,139.3,55.7    M142.7,48.6h0.8v-0.4c0-2.6-1.5-3.5-3.4-3.5c-1.5,0-2.7,0.6-3.3,0.9c-0.4,0.2-0.7,0.1-0.9-0.2l-0.2-0.3c-0.2-0.3-0.2-0.7,0.2-0.9   c0.7-0.4,2.2-1.2,4.4-1.2c3.3,0,5.1,1.8,5.1,5.2v8c0,0.4-0.2,0.7-0.7,0.7h-0.4c-0.4,0-0.7-0.2-0.7-0.7v-1.1c0-0.6,0.1-1,0.1-1h-0.1   c0,0-1.2,3.1-4.7,3.1c-2.3,0-4.7-1.3-4.7-4C134.3,48.8,140.1,48.6,142.7,48.6"></path>
	<path class="st1" d="M147.6,44c0-0.4,0.2-0.7,0.7-0.7h0.5c0.4,0,0.7,0.2,0.7,0.7v1.6c0,0.5-0.1,1-0.1,1h0.1   c0.5-1.2,2.3-3.5,5.6-3.5c3.4,0,4.6,1.9,4.6,5.3v8c0,0.4-0.2,0.7-0.7,0.7h-0.5c-0.4,0-0.7-0.2-0.7-0.7v-7.5c0-2.1-0.4-4-3-4   c-2.9,0-5.2,2.4-5.2,5.5v6c0,0.4-0.2,0.7-0.7,0.7h-0.5c-0.4,0-0.7-0.2-0.7-0.7V44z"></path>
</g>
</svg>
